<mxfile modified="2021-05-12T10:49:23.672Z" host="app.diagrams.net" agent="5.0 (Windows)" etag="qjIC0eSD3sPrD8Nzv_EC" version="14.6.12" type="github">
  <diagram id="Ht1M8jgEwFfnCIfOTk4-" name="Page-1">
    <mxGraphModel dx="1371" dy="692" grid="1" gridSize="10" guides="1" tooltips="1" connect="1" arrows="1" fold="1" page="1" pageScale="1" pageWidth="1169" pageHeight="827" math="0" shadow="0">
      <root>
        <mxCell id="0" />
        <mxCell id="1" parent="0" />
        <mxCell id="-QjtrjUzRDEMRZ5MF8oH-47" value="Logical Architecture" style="text;html=1;resizable=0;points=[];autosize=1;align=left;verticalAlign=top;spacingTop=-4;fontSize=30;fontStyle=1" parent="1" vertex="1">
          <mxGeometry x="56.5" y="64.5" width="310" height="40" as="geometry" />
        </mxCell>
        <mxCell id="-QjtrjUzRDEMRZ5MF8oH-48" value="PostProcessing Layer" style="text;html=1;resizable=0;points=[];autosize=1;align=left;verticalAlign=top;spacingTop=-4;fontSize=16;" parent="1" vertex="1">
          <mxGeometry x="55.5" y="114.5" width="170" height="20" as="geometry" />
        </mxCell>
        <mxCell id="SCVMTBWpLvtzJIhz15lM-1" value="" style="line;strokeWidth=2;html=1;fontSize=14;" parent="1" vertex="1">
          <mxGeometry x="52.5" y="139.5" width="337.5" height="10" as="geometry" />
        </mxCell>
        <mxCell id="Crhu09pAslZgU8R6OPKK-1" value="Collection Timer" style="points=[[0.145,0.145,0],[0.5,0,0],[0.855,0.145,0],[1,0.5,0],[0.855,0.855,0],[0.5,1,0],[0.145,0.855,0],[0,0.5,0]];shape=mxgraph.bpmn.event;html=1;verticalLabelPosition=bottom;labelBackgroundColor=#ffffff;verticalAlign=top;align=center;perimeter=ellipsePerimeter;outlineConnect=0;aspect=fixed;outline=standard;symbol=timer;" parent="1" vertex="1">
          <mxGeometry x="300" y="160" width="60" height="60" as="geometry" />
        </mxCell>
        <mxCell id="Crhu09pAslZgU8R6OPKK-4" value="&lt;div&gt;Mongo Stores&lt;/div&gt;" style="dashed=0;outlineConnect=0;html=1;align=center;labelPosition=center;verticalLabelPosition=bottom;verticalAlign=top;shape=mxgraph.webicons.mongodb;gradientColor=#DFDEDE" parent="1" vertex="1">
          <mxGeometry x="100.00000000000003" y="149.5" width="102.4" height="102.4" as="geometry" />
        </mxCell>
        <mxCell id="Crhu09pAslZgU8R6OPKK-5" value="FE Kafka" style="points=[[0,0,0],[0.25,0,0],[0.5,0,0],[0.75,0,0],[1,0,0],[0,1,0],[0.25,1,0],[0.5,1,0],[0.75,1,0],[1,1,0],[0,0.25,0],[0,0.5,0],[0,0.75,0],[1,0.25,0],[1,0.5,0],[1,0.75,0]];outlineConnect=0;fontColor=#232F3E;gradientColor=#945DF2;gradientDirection=north;fillColor=#5A30B5;strokeColor=#ffffff;dashed=0;verticalLabelPosition=bottom;verticalAlign=top;align=center;html=1;fontSize=12;fontStyle=0;aspect=fixed;shape=mxgraph.aws4.resourceIcon;resIcon=mxgraph.aws4.managed_streaming_for_kafka;" parent="1" vertex="1">
          <mxGeometry x="610" y="422.75" width="82.5" height="82.5" as="geometry" />
        </mxCell>
        <mxCell id="Crhu09pAslZgU8R6OPKK-6" value="BE kafka" style="points=[[0,0,0],[0.25,0,0],[0.5,0,0],[0.75,0,0],[1,0,0],[0,1,0],[0.25,1,0],[0.5,1,0],[0.75,1,0],[1,1,0],[0,0.25,0],[0,0.5,0],[0,0.75,0],[1,0.25,0],[1,0.5,0],[1,0.75,0]];outlineConnect=0;fontColor=#232F3E;gradientColor=#945DF2;gradientDirection=north;fillColor=#5A30B5;strokeColor=#ffffff;dashed=0;verticalLabelPosition=bottom;verticalAlign=top;align=center;html=1;fontSize=12;fontStyle=0;aspect=fixed;shape=mxgraph.aws4.resourceIcon;resIcon=mxgraph.aws4.managed_streaming_for_kafka;" parent="1" vertex="1">
          <mxGeometry x="366.5" y="242" width="78" height="78" as="geometry" />
        </mxCell>
        <mxCell id="Crhu09pAslZgU8R6OPKK-7" value="SNMP-Connector" style="points=[[0.015,0.015,0],[0.985,0.015,0],[0.985,0.985,0],[0.015,0.985,0],[0.25,0,0],[0.5,0,0],[0.75,0,0],[1,0.25,0],[1,0.5,0],[1,0.75,0],[0.75,1,0],[0.5,1,0],[0.25,1,0],[0,0.75,0],[0,0.5,0],[0,0.25,0]];verticalLabelPosition=bottom;html=1;verticalAlign=top;aspect=fixed;align=center;pointerEvents=1;shape=mxgraph.cisco19.rect;prIcon=virtual_private_network_connector;fillColor=#FAFAFA;strokeColor=#005073;" parent="1" vertex="1">
          <mxGeometry x="963" y="389" width="64" height="50" as="geometry" />
        </mxCell>
        <mxCell id="Crhu09pAslZgU8R6OPKK-13" value="SNMP NETWORK (CMTS-CM-EMTA-BITSTREAM)" style="image;html=1;image=img/lib/clip_art/networking/Cloud_Server_128x128.png" parent="1" vertex="1">
          <mxGeometry x="930" y="528" width="130" height="80" as="geometry" />
        </mxCell>
        <mxCell id="Crhu09pAslZgU8R6OPKK-14" value="Frontend Layer" style="text;html=1;resizable=0;points=[];autosize=1;align=left;verticalAlign=top;spacingTop=-4;fontSize=16;" parent="1" vertex="1">
          <mxGeometry x="613" y="114.5" width="120" height="20" as="geometry" />
        </mxCell>
        <mxCell id="Crhu09pAslZgU8R6OPKK-15" value="" style="line;strokeWidth=2;html=1;fontSize=14;" parent="1" vertex="1">
          <mxGeometry x="610" y="139.5" width="337.5" height="10" as="geometry" />
        </mxCell>
        <mxCell id="Crhu09pAslZgU8R6OPKK-16" value="&lt;div&gt;SNMP-BE eventd cluster&lt;/div&gt;" style="shape=image;html=1;verticalAlign=top;verticalLabelPosition=bottom;labelBackgroundColor=#ffffff;imageAspect=0;aspect=fixed;image=https://cdn4.iconfinder.com/data/icons/essential-app-1/16/cluster-data-group-organize-128.png" parent="1" vertex="1">
          <mxGeometry x="76.5" y="400" width="128" height="128" as="geometry" />
        </mxCell>
        <mxCell id="Crhu09pAslZgU8R6OPKK-17" value="&lt;div&gt;SNMP-FE eventd cluster&lt;/div&gt;" style="shape=image;html=1;verticalAlign=top;verticalLabelPosition=bottom;labelBackgroundColor=#ffffff;imageAspect=0;aspect=fixed;image=https://cdn4.iconfinder.com/data/icons/essential-app-1/16/cluster-data-group-organize-128.png" parent="1" vertex="1">
          <mxGeometry x="714.75" y="220" width="128" height="128" as="geometry" />
        </mxCell>
        <mxCell id="Crhu09pAslZgU8R6OPKK-18" value="" style="shape=flexArrow;endArrow=classic;html=1;entryX=0;entryY=0.5;entryDx=0;entryDy=0;entryPerimeter=0;exitX=1;exitY=0.5;exitDx=0;exitDy=0;" parent="1" source="Crhu09pAslZgU8R6OPKK-16" target="Crhu09pAslZgU8R6OPKK-5" edge="1">
          <mxGeometry width="50" height="50" relative="1" as="geometry">
            <mxPoint x="358" y="489" as="sourcePoint" />
            <mxPoint x="408" y="439" as="targetPoint" />
          </mxGeometry>
        </mxCell>
        <mxCell id="Crhu09pAslZgU8R6OPKK-19" value="2- Inventory/Collection REQUEST" style="edgeLabel;html=1;align=center;verticalAlign=middle;resizable=0;points=[];" parent="Crhu09pAslZgU8R6OPKK-18" vertex="1" connectable="0">
          <mxGeometry x="0.0481" y="-2" relative="1" as="geometry">
            <mxPoint as="offset" />
          </mxGeometry>
        </mxCell>
        <mxCell id="Crhu09pAslZgU8R6OPKK-20" value="" style="shape=flexArrow;endArrow=classic;startArrow=classic;html=1;exitX=0.184;exitY=0;exitDx=0;exitDy=0;exitPerimeter=0;" parent="1" source="Crhu09pAslZgU8R6OPKK-16" target="Crhu09pAslZgU8R6OPKK-4" edge="1">
          <mxGeometry width="100" height="100" relative="1" as="geometry">
            <mxPoint x="450" y="400" as="sourcePoint" />
            <mxPoint x="40" y="201" as="targetPoint" />
            <Array as="points">
              <mxPoint x="40" y="300" />
            </Array>
          </mxGeometry>
        </mxCell>
        <UserObject label="1- Polling to get devices ready to connect " placeholders="1" name="Variable" id="Crhu09pAslZgU8R6OPKK-21">
          <mxCell style="text;html=1;strokeColor=none;fillColor=none;align=center;verticalAlign=middle;whiteSpace=wrap;overflow=hidden;" parent="1" vertex="1">
            <mxGeometry x="76.5" y="288" width="80" height="60" as="geometry" />
          </mxCell>
        </UserObject>
        <mxCell id="Crhu09pAslZgU8R6OPKK-24" value="" style="shape=flexArrow;endArrow=classic;html=1;exitX=0.5;exitY=0;exitDx=0;exitDy=0;exitPerimeter=0;entryX=0;entryY=1;entryDx=0;entryDy=0;" parent="1" source="Crhu09pAslZgU8R6OPKK-5" target="Crhu09pAslZgU8R6OPKK-17" edge="1">
          <mxGeometry width="50" height="50" relative="1" as="geometry">
            <mxPoint x="642.5" y="410" as="sourcePoint" />
            <mxPoint x="710" y="360" as="targetPoint" />
          </mxGeometry>
        </mxCell>
        <UserObject label="3 - Read devices to poll" placeholders="1" name="Variable" id="Crhu09pAslZgU8R6OPKK-25">
          <mxCell style="text;html=1;strokeColor=none;fillColor=none;align=center;verticalAlign=middle;whiteSpace=wrap;overflow=hidden;" parent="1" vertex="1">
            <mxGeometry x="540" y="368" width="120" height="30" as="geometry" />
          </mxCell>
        </UserObject>
        <mxCell id="Crhu09pAslZgU8R6OPKK-26" value="" style="shape=flexArrow;endArrow=classic;html=1;entryX=0;entryY=0.5;entryDx=0;entryDy=0;entryPerimeter=0;exitX=1;exitY=1;exitDx=0;exitDy=0;" parent="1" source="Crhu09pAslZgU8R6OPKK-17" target="Crhu09pAslZgU8R6OPKK-7" edge="1">
          <mxGeometry width="50" height="50" relative="1" as="geometry">
            <mxPoint x="870" y="439" as="sourcePoint" />
            <mxPoint x="920" y="389" as="targetPoint" />
          </mxGeometry>
        </mxCell>
        <UserObject label="4 - SNMP Query" placeholders="1" name="Variable" id="Crhu09pAslZgU8R6OPKK-27">
          <mxCell style="text;html=1;strokeColor=none;fillColor=none;align=center;verticalAlign=middle;whiteSpace=wrap;overflow=hidden;" parent="1" vertex="1">
            <mxGeometry x="810" y="389" width="90" height="41" as="geometry" />
          </mxCell>
        </UserObject>
        <mxCell id="Crhu09pAslZgU8R6OPKK-28" value="" style="shape=flexArrow;endArrow=classic;startArrow=classic;html=1;entryX=0.5;entryY=1;entryDx=0;entryDy=0;entryPerimeter=0;exitX=0.5;exitY=0;exitDx=0;exitDy=0;" parent="1" source="Crhu09pAslZgU8R6OPKK-13" target="Crhu09pAslZgU8R6OPKK-7" edge="1">
          <mxGeometry width="100" height="100" relative="1" as="geometry">
            <mxPoint x="820" y="560" as="sourcePoint" />
            <mxPoint x="920" y="460" as="targetPoint" />
          </mxGeometry>
        </mxCell>
        <UserObject label="5- SNMP Transaction" placeholders="1" name="Variable" id="Crhu09pAslZgU8R6OPKK-29">
          <mxCell style="text;html=1;strokeColor=none;fillColor=none;align=center;verticalAlign=middle;whiteSpace=wrap;overflow=hidden;" parent="1" vertex="1">
            <mxGeometry x="1000" y="465.25" width="93" height="40" as="geometry" />
          </mxCell>
        </UserObject>
        <mxCell id="Crhu09pAslZgU8R6OPKK-30" value="" style="endArrow=none;dashed=1;html=1;dashPattern=1 3;strokeWidth=2;" parent="1" edge="1">
          <mxGeometry width="50" height="50" relative="1" as="geometry">
            <mxPoint x="480" y="670" as="sourcePoint" />
            <mxPoint x="480" y="110" as="targetPoint" />
          </mxGeometry>
        </mxCell>
        <mxCell id="Crhu09pAslZgU8R6OPKK-31" value="" style="shape=flexArrow;endArrow=classic;html=1;entryX=1;entryY=0.5;entryDx=0;entryDy=0;exitX=0.5;exitY=0;exitDx=0;exitDy=0;exitPerimeter=0;" parent="1" source="Crhu09pAslZgU8R6OPKK-7" target="Crhu09pAslZgU8R6OPKK-17" edge="1">
          <mxGeometry width="50" height="50" relative="1" as="geometry">
            <mxPoint x="1050" y="310" as="sourcePoint" />
            <mxPoint x="1100" y="260" as="targetPoint" />
          </mxGeometry>
        </mxCell>
        <UserObject label="6- SNMP Response" placeholders="1" name="Variable" id="Crhu09pAslZgU8R6OPKK-32">
          <mxCell style="text;html=1;strokeColor=none;fillColor=none;align=center;verticalAlign=middle;whiteSpace=wrap;overflow=hidden;" parent="1" vertex="1">
            <mxGeometry x="880" y="280" width="170" height="40" as="geometry" />
          </mxCell>
        </UserObject>
        <mxCell id="Crhu09pAslZgU8R6OPKK-33" value="" style="shape=flexArrow;endArrow=classic;html=1;entryX=1;entryY=0.5;entryDx=0;entryDy=0;entryPerimeter=0;exitX=0;exitY=0.5;exitDx=0;exitDy=0;" parent="1" source="Crhu09pAslZgU8R6OPKK-17" target="Crhu09pAslZgU8R6OPKK-6" edge="1">
          <mxGeometry width="50" height="50" relative="1" as="geometry">
            <mxPoint x="480" y="380" as="sourcePoint" />
            <mxPoint x="530" y="330" as="targetPoint" />
          </mxGeometry>
        </mxCell>
        <UserObject label="7- Formatted SNMP response, splitted if necessary" placeholders="1" name="Variable" id="Crhu09pAslZgU8R6OPKK-34">
          <mxCell style="text;html=1;strokeColor=none;fillColor=none;align=center;verticalAlign=middle;whiteSpace=wrap;overflow=hidden;" parent="1" vertex="1">
            <mxGeometry x="506" y="192.4" width="157" height="80" as="geometry" />
          </mxCell>
        </UserObject>
        <mxCell id="Crhu09pAslZgU8R6OPKK-36" value="" style="shape=flexArrow;endArrow=classic;html=1;entryX=1.012;entryY=0.203;entryDx=0;entryDy=0;entryPerimeter=0;exitX=0;exitY=0.5;exitDx=0;exitDy=0;exitPerimeter=0;" parent="1" source="Crhu09pAslZgU8R6OPKK-6" target="Crhu09pAslZgU8R6OPKK-16" edge="1">
          <mxGeometry width="50" height="50" relative="1" as="geometry">
            <mxPoint x="280" y="380" as="sourcePoint" />
            <mxPoint x="330" y="330" as="targetPoint" />
          </mxGeometry>
        </mxCell>
        <UserObject label="8- Read SNMP Processed Responses and process the data across the event chain" placeholders="1" name="Variable" id="Crhu09pAslZgU8R6OPKK-37">
          <mxCell style="text;html=1;strokeColor=none;fillColor=none;align=center;verticalAlign=middle;whiteSpace=wrap;overflow=hidden;" parent="1" vertex="1">
            <mxGeometry x="280" y="365.75" width="153" height="57" as="geometry" />
          </mxCell>
        </UserObject>
        <mxCell id="Crhu09pAslZgU8R6OPKK-38" value="" style="shape=flexArrow;endArrow=classic;html=1;exitX=0.613;exitY=0.008;exitDx=0;exitDy=0;exitPerimeter=0;" parent="1" source="Crhu09pAslZgU8R6OPKK-16" target="Crhu09pAslZgU8R6OPKK-4" edge="1">
          <mxGeometry width="50" height="50" relative="1" as="geometry">
            <mxPoint x="170" y="370" as="sourcePoint" />
            <mxPoint x="220" y="190" as="targetPoint" />
            <Array as="points">
              <mxPoint x="290" y="270" />
            </Array>
          </mxGeometry>
        </mxCell>
        <UserObject label="9 Update Stores" placeholders="1" name="Variable" id="Crhu09pAslZgU8R6OPKK-39">
          <mxCell style="text;html=1;strokeColor=none;fillColor=none;align=center;verticalAlign=middle;whiteSpace=wrap;overflow=hidden;" parent="1" vertex="1">
            <mxGeometry x="190" y="264" width="80" height="40" as="geometry" />
          </mxCell>
        </UserObject>
        <mxCell id="Crhu09pAslZgU8R6OPKK-40" value="Kafka2Zhilabs" style="points=[[0,0,0],[0.25,0,0],[0.5,0,0],[0.75,0,0],[1,0,0],[0,1,0],[0.25,1,0],[0.5,1,0],[0.75,1,0],[1,1,0],[0,0.25,0],[0,0.5,0],[0,0.75,0],[1,0.25,0],[1,0.5,0],[1,0.75,0]];outlineConnect=0;fontColor=#232F3E;gradientColor=#945DF2;gradientDirection=north;fillColor=#5A30B5;strokeColor=#ffffff;dashed=0;verticalLabelPosition=bottom;verticalAlign=top;align=center;html=1;fontSize=12;fontStyle=0;aspect=fixed;shape=mxgraph.aws4.resourceIcon;resIcon=mxgraph.aws4.managed_streaming_for_kafka;" parent="1" vertex="1">
          <mxGeometry x="317.5" y="570" width="78" height="78" as="geometry" />
        </mxCell>
        <mxCell id="Crhu09pAslZgU8R6OPKK-41" value="" style="shape=flexArrow;endArrow=classic;html=1;entryX=0.032;entryY=0.385;entryDx=0;entryDy=0;entryPerimeter=0;" parent="1" source="Crhu09pAslZgU8R6OPKK-16" target="Crhu09pAslZgU8R6OPKK-40" edge="1">
          <mxGeometry width="50" height="50" relative="1" as="geometry">
            <mxPoint x="160" y="650" as="sourcePoint" />
            <mxPoint x="210" y="600" as="targetPoint" />
          </mxGeometry>
        </mxCell>
        <UserObject label="10- Send CPE data to zhilabs" placeholders="1" name="Variable" id="Crhu09pAslZgU8R6OPKK-42">
          <mxCell style="text;html=1;strokeColor=none;fillColor=none;align=center;verticalAlign=middle;whiteSpace=wrap;overflow=hidden;" parent="1" vertex="1">
            <mxGeometry x="270" y="500" width="90" height="40" as="geometry" />
          </mxCell>
        </UserObject>
      </root>
    </mxGraphModel>
  </diagram>
</mxfile>
